<?xml version="1.0" encoding="UTF-8" standalone="no"?>
<!DOCTYPE svg PUBLIC "-//W3C//DTD SVG 1.1//EN" "http://www.w3.org/Graphics/SVG/1.1/DTD/svg11.dtd">
<svg width="330" height="120" view_box="0 0 330 120" xmlns="http://www.w3.org/2000/svg" xmlns:link="http://www.w3.org/1999/xlink">\n\n<desc>Généré par Mocodo 2.3.7 le Mon, 12 Jul 2021 02:22:50</desc>

<rect id="frame" x="0" y="0" width="330" height="120" fill="#f7f7f7" stroke="#808080" stroke-width="1" stroke-dasharray="2,2"/>

<!-- Association related to -->
<line x1="48" y1="60" x2="156" y2="60" stroke="#d6604d" stroke-width="2"/>
<text x="92" y="77.0" fill="#2166ac" font-family="Verdana" font-size="12">1,1</text>
<line x1="273" y1="60" x2="156" y2="60" stroke="#d6604d" stroke-width="2"/>
<text x="198" y="77.0" fill="#2166ac" font-family="Verdana" font-size="12">0,N</text>
<g id="association-related to">
	<path d="M 179 35 a 14 14 90 0 1 14 14 V 60 h -74 V 49 a 14 14 90 0 1 14 -14" fill="#f4a582" stroke="#f4a582" stroke-width="0"/>
	<path d="M 193 60.0 v 11 a 14 14 90 0 1 -14 14 H 133 a 14 14 90 0 1 -14 -14 V 60.0 H 74" fill="#fddbc7" stroke="#fddbc7" stroke-width="0"/>
	<rect x="119" y="35" width="74" height="50" fill="none" rx="14" stroke="#d6604d" stroke-width="2"/>
	<line x1="119" y1="60" x2="193" y2="60" stroke="#d6604d" stroke-width="1"/>
	<text x="126" y="52.7" fill="#000000" font-family="Verdana" font-size="12">related to</text>
</g>

<!-- Entity CATEGORY -->
<g id="entity-CATEGORY">
	<g id="frame-CATEGORY">
		<rect x="225" y="18" width="96" height="25" fill="#92c5de" stroke="#92c5de" stroke-width="0"/>
		<rect x="225" y="43.0" width="96" height="59" fill="#d1e5f0" stroke="#d1e5f0" stroke-width="0"/>
		<rect x="225" y="18" width="96" height="84" fill="none" stroke="#4393c3" stroke-width="2"/>
		<line x1="225" y1="43" x2="321" y2="43" stroke="#4393c3" stroke-width="1"/>
	</g>
	<text x="239" y="35.7" fill="#000000" font-family="Verdana" font-size="12">CATEGORY</text>
	<text x="230" y="60.8" fill="#000000" font-family="Verdana" font-size="12">category code</text>
	<line x1="230" y1="63" x2="316" y2="63" stroke="#000000" stroke-width="1"/>
	<text x="230" y="77.8" fill="#000000" font-family="Verdana" font-size="12">name</text>
	<text x="230" y="94.8" fill="#000000" font-family="Verdana" font-size="12">status</text>
</g>

<!-- Entity TASK -->
<g id="entity-TASK">
	<g id="frame-TASK">
		<rect x="9" y="9" width="78" height="25" fill="#92c5de" stroke="#92c5de" stroke-width="0"/>
		<rect x="9" y="34.0" width="78" height="77" fill="#d1e5f0" stroke="#d1e5f0" stroke-width="0"/>
		<rect x="9" y="9" width="78" height="102" fill="none" stroke="#4393c3" stroke-width="2"/>
		<line x1="9" y1="34" x2="87" y2="34" stroke="#4393c3" stroke-width="1"/>
	</g>
	<text x="31" y="26.7" fill="#000000" font-family="Verdana" font-size="12">TASK</text>
	<text x="14" y="51.7" fill="#000000" font-family="Verdana" font-size="12">task code</text>
	<line x1="14" y1="54" x2="73" y2="54" stroke="#000000" stroke-width="1"/>
	<text x="14" y="68.8" fill="#000000" font-family="Verdana" font-size="12">title</text>
	<text x="14" y="85.8" fill="#000000" font-family="Verdana" font-size="12">completion</text>
	<text x="14" y="102.8" fill="#000000" font-family="Verdana" font-size="12">status</text>
</g>
</svg>